# xmcd
# Copyright (C) 1995-1998 Ti Kan
#
# Track frame offsets:
#       150
#       32631
#       58854
#       70259
#       94766
#       122879
#       145144
#       170256
#       180526
#       197609
#       218711
#       240514
#       272906
#       297431
#
# Disc length: 4407 seconds
#
# Revision: 0
# Processed by: cddbd v1.5.1PL0 Copyright (c) Steve Scherf et al.
# Submitted via: CD-Transfer v1.0
#
DISCID=d211350e
DTITLE=DJ Kurtis - 
DYEAR=97
DGENRE=
TTITLE0=Something goin' on
TTITLE1=Moment of my life
TTITLE2=Never stop
TTITLE3=Hold your head up high
TTITLE4=Post modern sleaze
TTITLE5=Baila
TTITLE6=Closer than close
TTITLE7=Never stop
TTITLE8=Happy days
TTITLE9=Music takes u high
TTITLE10=Spiller from Rio
TTITLE11=Fall down
TTITLE12=Life's full of music
TTITLE13=Alabama blues
EXTD=
EXTT0=
EXTT1=
EXTT2=
EXTT3=
EXTT4=
EXTT5=
EXTT6=
EXTT7=
EXTT8=
EXTT9=
EXTT10=
EXTT11=
EXTT12=
EXTT13=
PLAYORDER=
